<svg width="21" height="20" viewBox="0 0 21 20" fill="none" xmlns="http://www.w3.org/2000/svg">
<path d="M10.6531 8.63672V11.5413H14.7718C14.591 12.4754 14.0482 13.2663 13.2342 13.7981L15.718 15.6868C17.1651 14.3777 18 12.455 18 10.1709C18 9.63908 17.9513 9.12767 17.8609 8.6368L10.6531 8.63672Z" fill="#4285F4"/>
<path d="M3.82115 6.63867C3.29938 7.64773 3.00024 8.78639 3.00024 10C3.00024 11.2136 3.29938 12.3523 3.82115 13.3613C3.82115 13.3681 6.36759 11.425 6.36759 11.425C6.21453 10.975 6.12406 10.4977 6.12406 9.99993C6.12406 9.50214 6.21453 9.02489 6.36759 8.57489L3.82115 6.63867Z" fill="#FBBC05"/>
<path d="M10.6529 5.48638C11.78 5.48638 12.7818 5.86819 13.5819 6.60457L15.7735 4.45685C14.4446 3.24323 12.7192 2.5 10.6529 2.5C7.66123 2.5 5.08008 4.1841 3.8208 6.63866L6.36716 8.57504C6.97242 6.80228 8.66308 5.48638 10.6529 5.48638Z" fill="#EA4335"/>
<path d="M6.36387 11.4277L5.80368 11.848L3.8208 13.3616C5.08008 15.8093 7.66107 17.5003 10.6527 17.5003C12.719 17.5003 14.4514 16.8321 15.7176 15.6866L13.2339 13.798C12.552 14.248 11.6824 14.5207 10.6527 14.5207C8.66292 14.5207 6.97233 13.2048 6.367 11.4321L6.36387 11.4277Z" fill="#34A853"/>
</svg>
