<?xml version="1.0" encoding="utf-8"?>
<!-- Generator: Adobe Illustrator 27.6.1, SVG Export Plug-In . SVG Version: 6.00 Build 0)  -->
<svg version="1.1" id="Capa_1" xmlns="http://www.w3.org/2000/svg" xmlns:xlink="http://www.w3.org/1999/xlink" x="0px" y="0px"
	 viewBox="0 0 1920 1080" style="enable-background:new 0 0 1920 1080;" xml:space="preserve">
<style type="text/css">
	.st0{clip-path:url(#SVGID_00000116914804381390366820000007504305643211519618_);fill:#62D32F;}
</style>
<g>
	<defs>
		<rect id="SVGID_1_" x="190.2" y="311.8" width="1539.7" height="456.3"/>
	</defs>
	<clipPath id="SVGID_00000092453993749442536570000011507047486794199998_">
		<use xlink:href="#SVGID_1_"  style="overflow:visible;"/>
	</clipPath>
	<path style="clip-path:url(#SVGID_00000092453993749442536570000011507047486794199998_);fill:#62D32F;" d="M463.7,768.2h134.4
		V311.8H463.7v170.9H324.6V311.8H190.1v456.3h134.4V581.4h139.1V768.2z M747.3,668.8v-85.4h208v-98.7h-208v-73.5h216.6v-99.3h-345
		v456.3h335.3l31.4-99.3H747.3z M1249.4,580.1h-97.4c17.9-65.6,35.8-130.5,46.4-179.5h2C1210.4,445,1228.2,508.5,1249.4,580.1
		 M1440.2,768.2l-149.7-456.3h-172.9L973.3,768.2h129.8l26.5-88.7h143l27.8,88.7H1440.2z M1729.8,411.2v-99.3h-420.5l32.6,99.3h125
		v357h133.8v-357H1729.8z"/>
</g>
</svg>
